<svg id="Capa_1" data-name="Capa 1" xmlns="http://www.w3.org/2000/svg" viewBox="0 0 29.83 21.32"><defs><style>.cls-1{fill:#666;}</style></defs><title>icon-mail</title><path class="cls-1" d="M64.31,1143.3H75.56a2.8,2.8,0,0,1,.75.09,0.5,0.5,0,0,1,.32.78,2.45,2.45,0,0,1-.41.54l-10.78,10.86a1.65,1.65,0,0,1-2.36,0l-5.29-5.36-5.32-5.4a3,3,0,0,1-.48-0.61,0.5,0.5,0,0,1,.34-0.8,2.83,2.83,0,0,1,.72-0.08H64.31" transform="translate(-49.29 -1143.3)"/><path class="cls-1" d="M59.73,1155.68l1.65,1.61a4,4,0,0,0,4.63.8,5.71,5.71,0,0,0,1.23-.9c0.52-.46,1-1,1.5-1.46l0.13,0.12,7.17,7.35a2.51,2.51,0,0,1,.42.56,0.5,0.5,0,0,1-.34.78,2.21,2.21,0,0,1-.62.09H52.91a2.17,2.17,0,0,1-.58-0.08,0.52,0.52,0,0,1-.35-0.83,2.36,2.36,0,0,1,.38-0.51l7.26-7.43,0.11-.1" transform="translate(-49.29 -1143.3)"/><path class="cls-1" d="M58.05,1153.92L55,1157l-4.28,4.37a2.89,2.89,0,0,1-.59.47,0.48,0.48,0,0,1-.76-0.32,2.24,2.24,0,0,1-.09-0.62q0-7,0-13.94a2.4,2.4,0,0,1,.08-0.6,0.51,0.51,0,0,1,.82-0.33,2.27,2.27,0,0,1,.48.38l7.28,7.38,0.1,0.11" transform="translate(-49.29 -1143.3)"/><path class="cls-1" d="M70.4,1153.93c0.51-.49,1-1,1.51-1.45l5.73-5.75a3.24,3.24,0,0,1,.58-0.48,0.51,0.51,0,0,1,.84.35,2.26,2.26,0,0,1,.07.55q0,6.9,0,13.79a2.16,2.16,0,0,1-.06.53,0.52,0.52,0,0,1-.87.35,2.33,2.33,0,0,1-.43-0.36l-7.21-7.38-0.14-.15" transform="translate(-49.29 -1143.3)"/></svg>