<svg id="Capa_1" data-name="Capa 1" xmlns="http://www.w3.org/2000/svg" viewBox="0 0 24.17 26.19"><defs><style>.cls-1{fill:#666;}</style></defs><title>icon-tel</title><path class="cls-1" d="M50.65,1107.82a0.3,0.3,0,0,0,0-.1,3.19,3.19,0,0,1,1.08-2.13,9.55,9.55,0,0,1,2-1.67,2,2,0,0,1,1.92-.14,7.87,7.87,0,0,1,1.46.83,1.74,1.74,0,0,1,.48.74,17.53,17.53,0,0,1,.95,3.5c0.09,0.46.14,0.94,0.23,1.4a1.33,1.33,0,0,1-.26,1.12,11.9,11.9,0,0,1-.95,1.06c-0.37.37-.76,0.71-1.15,1a0.33,0.33,0,0,0-.12.44,16.54,16.54,0,0,0,2.08,3.75,20.71,20.71,0,0,0,5.86,5.45c0.64,0.4.64,0.38,1.21-.1s1.08-.9,1.64-1.33a1.8,1.8,0,0,1,1.71-.3,32,32,0,0,1,4.14,1.49,2.59,2.59,0,0,1,1.47,1.55,3.2,3.2,0,0,1,.31,1.66,2.25,2.25,0,0,1-.36.92,8.61,8.61,0,0,1-2.72,2.42,2.81,2.81,0,0,1-1.44.36,16.49,16.49,0,0,1-5.87-1.25A21.57,21.57,0,0,1,53,1117.87a21.94,21.94,0,0,1-2.26-7.83c0-.21,0-0.42-0.07-0.62v-1.58Z" transform="translate(-50.65 -1103.6)"/></svg>