<svg id="Capa_1" data-name="Capa 1" xmlns="http://www.w3.org/2000/svg" viewBox="0 0 41.01 41.02"><defs><style>.cls-1{fill:#333;}</style></defs><title>icon-facebook</title><path class="cls-1" d="M982.12,1142.12c-5,0-9.94,0-14.91,0a5.49,5.49,0,0,1-5.46-4.52,6.31,6.31,0,0,1-.09-1.22q0-14.62,0-29.25a5.6,5.6,0,0,1,6-6h29a5.63,5.63,0,0,1,6,6c0,9.61-.06,19.23,0,28.84a5.87,5.87,0,0,1-6.13,6.15c-4.8-.12-9.61,0-14.42,0h0Zm0.11-2h14.42c2.59,0,4-1.43,4-4q0-14.46,0-28.93c0-2.63-1.4-4-4-4H967.67c-2.63,0-4,1.41-4,4q0,14.42,0,28.85c0,2.68,1.41,4.09,4.1,4.09h14.51" transform="translate(-961.66 -1101.14)"/><path class="cls-1" d="M988.59,1121.55h-4.46v1c0,4.07,0,8.14,0,12.2,0,0.67-.17.9-0.86,0.88-1.74,0-3.49,0-5.33,0v-14h-2.3V1117h2.25c0-.86,0-1.64,0-2.41a14.77,14.77,0,0,1,.19-2.68,5.43,5.43,0,0,1,5-4.21c1.77-.1,3.54,0,5.39,0V1113c-0.88,0-1.72,0-2.56,0a1.72,1.72,0,0,0-1.87,1.82c0,0.6,0,1.2,0,1.8a1.5,1.5,0,0,0,.09.3h4.35v4.58Z" transform="translate(-961.66 -1101.14)"/></svg>