<svg id="Capa_1" data-name="Capa 1" xmlns="http://www.w3.org/2000/svg" viewBox="0 0 21.6 30.1"><defs><style>.cls-1{fill:#666;}</style></defs><title>icon-location</title><path class="cls-1" d="M460.09,1155.34h1.84a1.25,1.25,0,0,0,.26.09,10.71,10.71,0,0,1,9.3,8.24c0.12,0.52.21,1,.31,1.56v1.72l-0.09.33a40.84,40.84,0,0,1-1.27,4.56,50.85,50.85,0,0,1-8.16,12.89,1.5,1.5,0,0,1-2.56,0c-1.12-1.41-2.23-2.82-3.28-4.28a38.42,38.42,0,0,1-5.27-9.56c-0.44-1.27-.66-2.62-1-3.93v-1.72a1.89,1.89,0,0,0,.09-0.32,10.73,10.73,0,0,1,8.17-9.24c0.53-.13,1.08-0.22,1.62-0.33M461,1170a3.88,3.88,0,1,0-3.88-3.87A3.92,3.92,0,0,0,461,1170" transform="translate(-450.21 -1155.34)"/></svg>