<svg id="Capa_1" data-name="Capa 1" xmlns="http://www.w3.org/2000/svg" viewBox="0 0 41.01 41.02"><defs><style>.cls-1{fill:#333;}</style></defs><title>icon-instagram</title><path class="cls-1" d="M1027.61,1142.12c-5,0-9.94,0-14.91,0a5.49,5.49,0,0,1-5.46-4.52,6.23,6.23,0,0,1-.09-1.22q0-14.62,0-29.25a5.6,5.6,0,0,1,6-6h29a5.63,5.63,0,0,1,6,6c0,9.61-.06,19.23,0,28.84a5.87,5.87,0,0,1-6.13,6.15c-4.8-.12-9.61,0-14.42,0h0Zm0.11-2h14.42c2.59,0,4-1.43,4-4V1107.2c0-2.63-1.41-4-4.05-4h-28.93c-2.63,0-4,1.41-4,4q0,14.42,0,28.85c0,2.68,1.41,4.09,4.1,4.09h14.51" transform="translate(-1007.15 -1101.14)"/><path class="cls-1" d="M1016.68,1122.5a11,11,0,1,1,11,11,11,11,0,0,1-11-11m18.86,0a7.89,7.89,0,1,0-7.88,7.88,7.88,7.88,0,0,0,7.88-7.88" transform="translate(-1007.15 -1101.14)"/><path class="cls-1" d="M1038.8,1113.25a2.14,2.14,0,1,1,2.15-2.12,2.12,2.12,0,0,1-2.15,2.13" transform="translate(-1007.15 -1101.14)"/></svg>