<svg id="Capa_1" data-name="Capa 1" xmlns="http://www.w3.org/2000/svg" viewBox="0 0 41.01 41.02"><defs><style>.cls-1{fill:#333;}</style></defs><title>icon-youtube</title><path class="cls-1" d="M1072.24,1142.08c-5,0-9.94,0-14.91,0a5.49,5.49,0,0,1-5.46-4.52,6.29,6.29,0,0,1-.09-1.22q0-14.62,0-29.25a5.6,5.6,0,0,1,6-6h29a5.63,5.63,0,0,1,6,6c0,9.61-.06,19.23,0,28.84a5.87,5.87,0,0,1-6.13,6.15c-4.8-.12-9.61,0-14.42,0h0Zm0.11-2h14.42c2.59,0,4-1.43,4-4q0-14.46,0-28.93c0-2.63-1.4-4-4-4h-28.93c-2.63,0-4,1.41-4,4q0,14.42,0,28.85c0,2.68,1.41,4.09,4.1,4.09h14.51" transform="translate(-1051.78 -1101.09)"/><polygon class="cls-1" points="21.2 15.75 29.36 20.37 21.28 25.13 13.21 29.88 13.13 20.51 13.04 11.14 21.2 15.75"/></svg>