<svg id="Capa_1" data-name="Capa 1" xmlns="http://www.w3.org/2000/svg" viewBox="0 0 25.43 25.47"><defs><style>.cls-1{fill:#666;}</style></defs><title>icon-web</title><path class="cls-1" d="M65.27,1180.77a12.71,12.71,0,0,0-12.75,12.52,12.72,12.72,0,1,0,12.75-12.52m11,13.59c-0.08.49-.14,1-0.23,1.41a11,11,0,0,1-2,4.44,0.19,0.19,0,0,1-.26.11c-0.75-.3-1.51-0.59-2.27-0.87a0.22,0.22,0,0,1-.18-0.31c0.21-1.14.42-2.29,0.6-3.44,0.07-.44.08-0.89,0.12-1.34h4.25Zm-17.84,0c0,0.08,0,.14,0,0.19a22.79,22.79,0,0,0,.68,4.55,0.23,0.23,0,0,1-.19.34c-0.72.26-1.44,0.53-2.15,0.82a0.27,0.27,0,0,1-.39-0.1,11.13,11.13,0,0,1-2-4.42c-0.1-.45-0.15-0.91-0.22-1.38h4.25ZM72,1192.63a23.23,23.23,0,0,0-.7-4.76,0.22,0.22,0,0,1,.18-0.33c0.72-.26,1.44-0.52,2.15-0.82a0.28,0.28,0,0,1,.41.11,11.14,11.14,0,0,1,2,4.4c0.1,0.45.15,0.91,0.22,1.39H72Zm-17.78,0a0.37,0.37,0,0,1,0-.09c0-.3.09-0.6,0.14-0.9a11.51,11.51,0,0,1,2.06-4.83,0.26,0.26,0,0,1,.37-0.11c0.41,0.18.83,0.34,1.25,0.49s0.7,0.23,1,.34l-0.68,5.09H54.23Zm11.86,5.92v-4.2h4.22a23.54,23.54,0,0,1-.67,4.6l-3.55-.4M60.83,1188l3.53,0.4v4.19h-4.2a20.81,20.81,0,0,1,.67-4.59m5.26,0.43,3.56-.43a23,23,0,0,1,.67,4.6H66.09v-4.17ZM60.81,1199a24.17,24.17,0,0,1-.67-4.6h4.22v4.16l-3.56.43m5.28,1.28,3,0.36c-0.68,1.55-1.4,3-3,3.78v-4.14Zm-4.68-13.83a10.08,10.08,0,0,1,1.23-2.29,4.58,4.58,0,0,1,1.44-1.33,3.17,3.17,0,0,1,.3-0.13v4.11l-3-.36m3,17.92c-1-.22-2.92-2.72-2.89-3.73l2.89-.32v4Zm4.69-17.93-3,.33v-4.1c1.57,0.81,2.28,2.22,3,3.77m-7.94,17.28a10,10,0,0,1-3.3-2l1.67-.6a0.22,0.22,0,0,1,.32.15c0.39,0.77.8,1.52,1.2,2.28l0.11,0.21m8.22-20.3a8,8,0,0,1,3.22,2l-1.64.58a0.18,0.18,0,0,1-.27-0.12c-0.24-.52-0.49-1-0.76-1.54-0.16-.31-0.36-0.61-0.55-0.94m3.22,18.3v0.11a10.27,10.27,0,0,1-3.08,1.89c0.4-.83.81-1.67,1.22-2.51a0.18,0.18,0,0,1,.16-0.08l1.71,0.58M61,1183.31c-0.41.83-.81,1.67-1.22,2.5a0.25,0.25,0,0,1-.22.09,7.6,7.6,0,0,1-.76-0.2l-0.94-.33a9.28,9.28,0,0,1,3.14-2" transform="translate(-52.51 -1180.76)"/></svg>