<svg id="Capa_1" data-name="Capa 1" xmlns="http://www.w3.org/2000/svg" viewBox="0 0 90.07 57.22"><defs><style>.cls-1{fill:#fff;}</style></defs><title>logo</title><path class="cls-1" d="M86,85.05L76.66,72.38c-0.13.39-.23,0.65-0.31,0.91q-1.64,5.53-3.28,11.07a0.7,0.7,0,0,1-.74.7c-2.71,0-5.42,0-8.13,0a3.49,3.49,0,0,1-.4-0.06l9.62-32.39L86,72.12,98.5,52.57l9.42,32.48H106c-2,0-4-.05-5.94,0a1.15,1.15,0,0,1-1.34-1c-1.19-3.8-2.43-7.58-3.71-11.51L86,85.05" transform="translate(-45.37 -38.33)"/><path class="cls-1" d="M45.37,82.22l3.77-6a2.58,2.58,0,0,0,2.4,1,1.42,1.42,0,0,0,1.54-1.42,23.83,23.83,0,0,0,.11-2.49q0-9.77,0-19.53V52.88h3.88c1.35,0,2.71,0,4.06,0a0.62,0.62,0,0,1,.78.74q0,11.68,0,23.36a6.84,6.84,0,0,1-3.26,6,12.68,12.68,0,0,1-9,2c-1.83-.25-3.08-1.41-4.28-2.83" transform="translate(-45.37 -38.33)"/><path class="cls-1" d="M97.76,43.63c-2,1.69-4.14,3.5-6.27,5.34a1.27,1.27,0,0,0-.32.81c0,0.68,0,1.36,0,2a0.72,0.72,0,0,1-.46.51c-3.36,0-6.71,0-10.16-.15L98.44,38.33l37,37.27H123.86V71.74l2.14-.1-28.24-28" transform="translate(-45.37 -38.33)"/><path class="cls-1" d="M125.56,85H110.29V57a5.76,5.76,0,0,1,.48.39c2.21,2.21,4.44,4.4,6.62,6.64a2.05,2.05,0,0,1,.52,1.28c0,3.59,0,7.19,0,10.78v1h7.62v8Z" transform="translate(-45.37 -38.33)"/><path class="cls-1" d="M110.19,45.34h7.69V56.72a5,5,0,0,1-.49-0.37Q114,53,110.65,49.6a1.29,1.29,0,0,1-.43-0.7c0-1.16,0-2.33,0-3.56" transform="translate(-45.37 -38.33)"/><path class="cls-1" d="M58.72,95.33V89.48H61l0.74,3.24c0.23-1,.45-1.84.61-2.69a0.59,0.59,0,0,1,.71-0.61c0.54,0,1.08,0,1.69,0v5.91h-1.5v-3H63.08l-0.65,3H61.07l-0.7-3.27h-0.1v3.23H58.72Z" transform="translate(-45.37 -38.33)"/><path class="cls-1" d="M76.3,89.44c1.13,0,2.2,0,3.26,0,1.38,0.08,1.85,1.39,1.06,2.53a6.3,6.3,0,0,1,.63,1.51,1.64,1.64,0,0,1-1.58,1.86c-1.08.07-2.18,0-3.36,0V89.44Zm1.65,4.66c0.57-.14,1-0.24,1.5-0.4a0.83,0.83,0,0,0,0-.54C79,93,78.49,92.93,77.95,92.81v1.3Zm0-2.29c0.47-.1.89-0.17,1.28-0.3a0.8,0.8,0,0,0,0-.48c-0.41-.12-0.84-0.2-1.3-0.29v1.06Z" transform="translate(-45.37 -38.33)"/><path class="cls-1" d="M52.25,92.49v2.85H50.72V89.52c1.57-.25,1.56-0.25,2.23,1.09a9.9,9.9,0,0,0,1,1.68V89.49H55.5v5.78c-1.35.38-1.59,0.27-2.18-.92l-0.93-1.87H52.25" transform="translate(-45.37 -38.33)"/><path class="cls-1" d="M112.41,92.62c1.1,0.7.57,1.83,0.93,2.72a3.77,3.77,0,0,1-.5.06c-1.22,0-1.27.25-1.36-1.14-0.06-.87-0.37-1-1.5-0.84v1.94h-1.61v-5.9c1.14,0,2.25-.05,3.36,0a1.55,1.55,0,0,1,1.48,1.2,1.63,1.63,0,0,1-.8,1.94m-2.4-.48c0.59-.18,1.06-0.29,1.5-0.48a0.79,0.79,0,0,0,0-.54C111,91,110.54,90.88,110,90.77v1.37Z" transform="translate(-45.37 -38.33)"/><path class="cls-1" d="M67.75,92.35a2.8,2.8,0,0,1,2.82-3.07,2.9,2.9,0,0,1,2.77,3.15,2.84,2.84,0,0,1-2.78,3.11,2.9,2.9,0,0,1-2.8-3.2m1.74,0c0,1,.41,1.75,1,1.75s1.09-.73,1.08-1.73-0.47-1.65-1.09-1.63-1,.65-1,1.6" transform="translate(-45.37 -38.33)"/><path class="cls-1" d="M126.18,95.39c-0.54,0-.93,0-1.32,0a0.62,0.62,0,0,1-.45-0.19c-0.18-1-1-.52-1.49-0.62a0.32,0.32,0,0,0-.27.1c-0.32,1.25-1.3.5-2.07,0.78a6,6,0,0,1,.14-0.68c0.54-1.6,1.12-3.19,1.64-4.79,0.3-.92,1-0.43,1.57-0.55s0.6,0.26.7,0.62l1.55,5.33M123,93.28l0.9-.06-0.43-1.9-0.47,2" transform="translate(-45.37 -38.33)"/><path class="cls-1" d="M105.86,95.41c-0.53,0-.94,0-1.35,0a0.65,0.65,0,0,1-.45-0.21c-0.61-.91-1.28-0.9-2,0a0.79,0.79,0,0,1-.53.19c-0.43,0-.86,0-1.41,0,0.69-2,1.32-3.83,2-5.67a1.13,1.13,0,0,1,.85-0.28,1.68,1.68,0,0,1,1.09.23c0.62,1.86,1.15,3.75,1.73,5.73m-2.64-4.06-0.12,0-0.42,1.85h0.89l-0.35-1.89" transform="translate(-45.37 -38.33)"/><polygon class="cls-1" points="43.85 51.15 45.46 51.15 45.46 55.5 47.66 55.5 47.66 57.02 43.85 57.02 43.85 51.15"/><rect class="cls-1" x="71.03" y="51.14" width="1.64" height="5.87"/><rect class="cls-1" x="0.41" y="51.14" width="1.59" height="5.86"/><rect class="cls-1" x="50.71" y="51.13" width="1.61" height="5.89"/><rect class="cls-1" x="38.93" y="51.17" width="1.6" height="5.85"/></svg>